<?xml version="1.0" encoding="utf-8"?>
<!-- Generator: Adobe Illustrator 23.0.0, SVG Export Plug-In . SVG Version: 6.00 Build 0)  -->
<svg xmlns="http://www.w3.org/2000/svg" viewBox="0 0 220 220" >
<style type="text/css">
	.st0{fill:#FFFFFF;stroke:#000000;stroke-width:0.25;stroke-miterlimit:10;}
	.st1{fill:#010102;}
	.st2{fill:#F4F7F9;stroke:#000000;stroke-width:0.25;stroke-miterlimit:10;}
	.st3{fill:#FFFFFF;}
	.st4{font-family:'Bauer';}
	.st5{font-size:28.3199px;}
	.st6{font-size:18.0004px;}
</style>
<polygon points="60.6,56.2 45.8,52.9 43.9,62.8 58.8,66.1 "/>
<polygon points="20.5,66.9 14.6,83.5 23.3,87.2 29.2,70.6 "/>
<polygon points="184.8,82.6 170.4,79.4 168.5,89.3 183,92.5 "/>
<polygon points="193.6,108.6 192.9,124.3 202.1,124.8 202.8,109.1 "/>
<path d="M26,140.7H7.4c-2.5,0-4.4-2-4.4-4.4v-41c0-2.5,2-4.4,4.4-4.4H26c2.5,0,4.4,2,4.4,4.4v41C30.4,138.7,28.5,140.7,26,140.7z"/>
<ellipse transform="matrix(0.9999 -1.588564e-02 1.588564e-02 0.9999 -1.4429 0.2734)" class="st0" cx="16.5" cy="91" rx="7.2" ry="8"/>
<path d="M208.6,177.7H190c-2.5,0-4.4-2-4.4-4.4v-41.1c0-2.5,2-4.4,4.4-4.4h18.6c2.5,0,4.4,2,4.4,4.4v41.1
	C213,175.7,211.1,177.7,208.6,177.7z"/>
<ellipse transform="matrix(0.9999 -1.588564e-02 1.588564e-02 0.9999 -2.0567 3.162)" class="st0" cx="198" cy="131" rx="7.2" ry="8"/>
<path class="st1" d="M68.4,202H49.8c-2.5,0-4.4-2-4.4-4.4v-31.8c0-2.5,2-4.4,4.4-4.4h18.6c2.5,0,4.4,2,4.4,4.4v31.8
	C72.8,200,70.9,202,68.4,202z"/>
<path d="M150,204.8h-18.6c-2.5,0-4.4-2-4.4-4.4v-31.8c0-2.5,2-4.4,4.4-4.4H150c2.5,0,4.4,2,4.4,4.4v31.8
	C154.4,202.8,152.4,204.8,150,204.8z"/>
<ellipse transform="matrix(0.9999 -1.588564e-02 1.588564e-02 0.9999 -2.6182 2.2556)" class="st0" cx="140.7" cy="165.9" rx="7.2" ry="8"/>
<polygon points="54.8,142.9 54.1,158.9 63.4,159.4 64.1,143.4 "/>
<ellipse transform="matrix(0.9999 -1.588564e-02 1.588564e-02 0.9999 -2.6099 0.946)" class="st0" cx="58.2" cy="164.8" rx="7.2" ry="8"/>
<path d="M80.1,219.4c-0.1-13.5-9.7-24.4-21.5-24.4s-21.3,10.9-21.5,24.4H80.1z"/>
<path d="M162.3,220c-0.1-13.5-9.7-24.4-21.5-24.4c-11.8,0-21.3,10.9-21.5,24.4H162.3z"/>
<path d="M6.7,167c3.6-5.8,7.2-11.5,10.9-17.3c4.8,4.9,9.6,9.8,14.5,14.7c2.5-3.3,4.2-7.5,4.5-12.1c0.7-11.4-6.8-21.4-16.9-22.1
	S0.8,138,0.1,149.5C-0.4,156.5,2.3,162.9,6.7,167z"/>
<ellipse class="st0" cx="198.2" cy="91.2" rx="16.4" ry="19.2"/>
<ellipse class="st0" cx="31.7" cy="54.1" rx="16.4" ry="19.2"/>
<path class="st2" d="M136.8,15.5l1.3,1.2c0.3,0.3,0.7,0.2,0.9-0.1l8.3-11c0.2-0.3,0.2-0.8-0.1-1l-1.3-1.2c-0.3-0.3-0.7-0.2-0.9,0.1
	l-8.3,11C136.4,14.8,136.5,15.2,136.8,15.5z"/>
<path d="M140.9,18.5l0.5,1.6c0.1,0.3,0.5,0.5,0.8,0.4l13-4.8c0.3-0.1,0.5-0.5,0.4-0.8l-0.5-1.6c-0.1-0.3-0.5-0.5-0.8-0.4l-13,4.8
	C140.9,17.8,140.8,18.2,140.9,18.5z"/>
<path d="M132.6,15.6l1.7,0.1c0.4,0,0.7-0.3,0.7-0.7l0.6-14.2c0-0.4-0.3-0.7-0.6-0.7L133.2,0c-0.4,0-0.7,0.3-0.7,0.7l-0.6,14.2
	C131.9,15.3,132.2,15.6,132.6,15.6z"/>
<path d="M128.3,45.6l-12.7-9.3c-0.9-0.6-1.1-2-0.5-2.9l14.2-22.9c0.6-1,1.8-1.2,2.7-0.6l12.7,9.3c0.9,0.6,1.1,2,0.5,2.9L131,45.1
	C130.4,46,129.2,46.3,128.3,45.6z"/>
<path class="st0" d="M140.6,171.8l-94.1-25.6c-4.7-1.3-7.6-6.5-6.4-11.6L64.4,28.6c1.2-5.1,5.9-8.2,10.6-7l94.1,25.6
	c4.7,1.3,7.6,6.5,6.4,11.6l-24.3,106.1C150,170,145.3,173.1,140.6,171.8z"/>
<path d="M131.6,132.5l-60.6-16.1c-3-0.8-4.9-4.1-4.1-7.4l15.1-67.3c0.7-3.3,3.8-5.3,6.8-4.5l60.6,16.1c3,0.8,4.9,4.1,4.1,7.4
	L138.4,128C137.6,131.3,134.6,133.3,131.6,132.5z"/>
<path d="M190.2,203.5c3.6-5.8,7.2-11.5,10.9-17.3c4.8,4.9,9.6,9.8,14.5,14.7c2.5-3.3,4.2-7.5,4.5-12.1c0.7-11.4-6.8-21.4-16.9-22.1
	c-10.1-0.8-18.8,7.9-19.6,19.3C183.1,192.9,185.7,199.4,190.2,203.5z"/>
<text transform="matrix(0.8934 0 0 1 91.2519 95.6335)" class="st3 st4 st5">s</text>
<text transform="matrix(0.8934 0 0 1 118.0331 88.7971)" class="st3 st4 st5">c</text>
<ellipse class="st3" cx="131.4" cy="17.8" rx="1.8" ry="1.9"/>
<ellipse class="st3" cx="138.1" cy="23.3" rx="1.8" ry="1.9"/>
<text transform="matrix(0.8934 0 0 1 105.1572 88.7966)" class="st3 st4 st6">&amp;</text>
</svg>
